<svg xmlns="http://www.w3.org/2000/svg" viewBox="0 0 1080 1350" role="img" aria-labelledby="title desc">
  <title id="title">NexStock logo</title>
  <desc id="desc">NexStock white loop mark on black background.</desc>
  <rect width="1080" height="1350" fill="#000"/>
  <path fill="#fff" fill-rule="evenodd" d="M488 527c-44 0-80 36-80 80v190c0 26-21 47-47 47s-47-21-47-47V607c0-96 78-174 174-174 94 0 171 75 174 169 1 26-19 48-45 49s-48-19-49-45c-2-44-37-79-80-79Zm239-47c26 0 47 21 47 47v180c0 104-84 188-188 188-101 0-183-79-188-179l-2-54c-1-26 19-48 45-49s48 19 49 45l2 54c2 50 44 89 94 89 52 0 94-42 94-94V527c0-26 21-47 47-47Z"/>
</svg>
